<?xml version="1.0" encoding="UTF-8" standalone="no"?>
<svg
   xmlns:dc="http://purl.org/dc/elements/1.1/"
   xmlns:cc="http://creativecommons.org/ns#"
   xmlns:rdf="http://www.w3.org/1999/02/22-rdf-syntax-ns#"
   xmlns:svg="http://www.w3.org/2000/svg"
   xmlns="http://www.w3.org/2000/svg"
   viewBox="0 0 1452 408"
   height="408"
   width="1452"
   xml:space="preserve"
   id="svg2"
   version="1.1"><metadata
     id="metadata8"><rdf:RDF><cc:Work
         rdf:about=""><dc:format>image/svg+xml</dc:format><dc:type
           rdf:resource="http://purl.org/dc/dcmitype/StillImage" /></cc:Work></rdf:RDF></metadata><defs
     id="defs6" /><g
     transform="matrix(1.3333333,0,0,-1.3333333,0,408)"
     id="g10"><g
       transform="scale(0.1)"
       id="g12"><path
         id="path14"
         style="fill:#4b4b4b;fill-opacity:1;fill-rule:nonzero;stroke:none"
         d="m 6636.02,1042.82 c -266.77,0 -483.18,216.35 -483.18,483.19 0,266.85 216.41,483.14 483.18,483.14 266.92,0 483.23,-216.29 483.23,-483.14 0,-266.84 -216.31,-483.19 -483.23,-483.19 z m 0,1304.77 c -453.7,0 -821.58,-367.88 -821.58,-821.58 0,-453.8 367.88,-821.612 821.58,-821.612 453.79,0 821.67,367.812 821.67,821.612 0,453.7 -367.88,821.58 -821.67,821.58" /><path
         id="path16"
         style="fill:#4b4b4b;fill-opacity:1;fill-rule:nonzero;stroke:none"
         d="m 8456.59,1953.39 c -234.51,0 -424.6,-190.13 -424.6,-424.59 l 0.08,-778.249 h -351.7 V 2301.37 h 351.7 v -239.12 c 0,0 149.7,239.12 458.01,239.12 h 107.69 v -347.98 h -141.18" /><path
         id="path18"
         style="fill:#4b4b4b;fill-opacity:1;fill-rule:nonzero;stroke:none"
         d="M 4890.45,2301.37 5156.33,1228 5449.38,2301.37 h 349.29 L 5348.05,750.59 H 4998.76 L 4722.85,1829.91 4446.96,750.59 h -349.33 l -450.58,1550.78 h 349.31 L 4289.37,1228 l 265.9,1073.37 h 335.18" /><path
         id="path20"
         style="fill:#4b4b4b;fill-opacity:1;fill-rule:nonzero;stroke:none"
         d="m 9636.4,1586.13 c 249.96,140.98 419.2,408.73 419.2,715.38 h -351.87 c 0,-258.49 -210.26,-468.71 -468.77,-468.71 h -47.12 V 3049.56 H 8836.06 V 750.551 h 351.78 v 730.389 h 41.88 c 34.44,0 79.19,-22.7 99.5,-50.37 L 9828.41,750.551 H 10250 l -613.6,835.579" /><path
         id="path22"
         style="fill:#6fda44;fill-opacity:1;fill-rule:nonzero;stroke:none"
         d="m 2810.73,1119.3 c -166.56,0 -322.43,70.52 -464.29,185.18 l 34.52,162.37 1.25,6.29 c 31.1,172.43 128.07,461.7 428.52,461.7 224.88,0 407.78,-182.94 407.78,-407.8 0,-224.83 -182.9,-407.74 -407.78,-407.74 z m 0,1228.29 c -383.27,0 -680.6,-248.75 -801.18,-658.82 -184.2,276.77 -324.23,609.21 -405.55,889.09 H 1191.23 V 1504.51 c 0,-211.81 -172.39,-384.13 -384.265,-384.13 -211.832,0 -384.192,172.32 -384.192,384.13 V 2577.86 H 10 V 1504.51 C 10,1065.12 367.535,704.398 806.965,704.398 1246.43,704.398 1604,1065.12 1604,1504.51 v 179.7 c 79.97,-166.92 178.37,-336.17 297.91,-485.87 L 1649.41,10.4414 h 421.97 L 2254.53,872.02 c 160.33,-102.481 344.75,-167.622 556.2,-167.622 452.47,0 820.58,370.232 820.58,822.642 0,452.45 -368.11,820.55 -820.58,820.55" /><path
         id="path24"
         style="fill:#4a4a4a;fill-opacity:1;fill-rule:nonzero;stroke:none"
         d="m 10322,2263.52 h -117.5 v 36.5 h 275 v -36.5 H 10362 V 1950 h -40 v 313.52" /><path
         id="path26"
         style="fill:#4a4a4a;fill-opacity:1;fill-rule:nonzero;stroke:none"
         d="m 10553.5,2300.02 h 40 l 127.5,-191.01 127.5,191.01 h 40 V 1950 h -39.5 v 283.52 l -127.5,-187.51 h -2 L 10592,2233.02 V 1950 h -38.5 v 350.02" /></g></g></svg>